<svg xmlns="http://www.w3.org/2000/svg" viewBox="0 0 1200 700" role="img" aria-label="Tesla Model 3">
  <defs>
    <linearGradient id="body" x1="0" y1="0" x2="1" y2="1">
      <stop offset="0%" stop-color="#f5f7fb"/>
      <stop offset="100%" stop-color="#bfcbe0"/>
    </linearGradient>
  </defs>
  <rect width="1200" height="700" rx="36" fill="#08101b"/>
  <ellipse cx="600" cy="558" rx="350" ry="72" fill="#10233b" opacity="0.9"/>
  <path d="M168 441c67-89 163-140 287-154l100-49c95-40 210-40 300 0l102 49c75 17 138 64 178 140l-26 22H168z" fill="url(#body)"/>
  <path d="M336 353c45-43 101-63 167-69 63-6 122-6 182 0 66 6 121 26 168 69H336z" fill="#101722"/>
  <path d="M396 353c26-28 62-46 107-53 45-7 90-7 137 0 45 7 80 25 106 53H396z" fill="#071018"/>
  <rect x="444" y="372" width="122" height="13" rx="6.5" fill="#7ff3ff"/>
  <rect x="634" y="372" width="122" height="13" rx="6.5" fill="#7ff3ff"/>
  <rect x="224" y="449" width="716" height="56" rx="28" fill="#121923"/>
  <circle cx="366" cy="506" r="72" fill="#0a1017"/>
  <circle cx="366" cy="506" r="41" fill="#e5ebf2"/>
  <circle cx="834" cy="506" r="72" fill="#0a1017"/>
  <circle cx="834" cy="506" r="41" fill="#e5ebf2"/>
  <text x="600" y="622" text-anchor="middle" fill="#d7f8ff" font-family="Arial, sans-serif" font-size="48" font-weight="700">MODEL 3</text>
</svg>
