<svg xmlns="http://www.w3.org/2000/svg" viewBox="0 0 1920 1080" role="img" aria-label="Hero charging illustration">
  <defs>
    <linearGradient id="bg" x1="0" x2="1" y1="0" y2="1">
      <stop offset="0%" stop-color="#05070c" />
      <stop offset="55%" stop-color="#0b1220" />
      <stop offset="100%" stop-color="#111c2d" />
    </linearGradient>
    <radialGradient id="glow" cx="50%" cy="42%" r="55%">
      <stop offset="0%" stop-color="#3ee6ff" stop-opacity="0.45" />
      <stop offset="100%" stop-color="#3ee6ff" stop-opacity="0" />
    </radialGradient>
  </defs>
  <rect width="1920" height="1080" fill="url(#bg)" />
  <circle cx="1350" cy="310" r="520" fill="url(#glow)" />
  <rect x="140" y="740" width="1640" height="120" rx="60" fill="#0d1524" opacity="0.95" />
  <rect x="980" y="350" width="120" height="380" rx="60" fill="#1f324d" />
  <rect x="930" y="300" width="220" height="90" rx="32" fill="#2d4667" />
  <rect x="820" y="240" width="380" height="80" rx="40" fill="#3ee6ff" opacity="0.85" />
  <rect x="420" y="650" width="760" height="120" rx="60" fill="#18263d" />
  <rect x="520" y="610" width="540" height="130" rx="65" fill="#243a58" />
  <rect x="620" y="585" width="190" height="70" rx="35" fill="#0b1018" opacity="0.7" />
  <rect x="1110" y="560" width="130" height="32" rx="16" fill="#3ee6ff" opacity="0.8" />
  <circle cx="640" cy="790" r="52" fill="#05070c" />
  <circle cx="1040" cy="790" r="52" fill="#05070c" />
  <circle cx="640" cy="790" r="24" fill="#8aa4c8" />
  <circle cx="1040" cy="790" r="24" fill="#8aa4c8" />
</svg>
